<?xml version="1.0" standalone="no"?>
<!DOCTYPE svg PUBLIC "-//W3C//DTD SVG 20010904//EN"
 "http://www.w3.org/TR/2001/REC-SVG-20010904/DTD/svg10.dtd">
<svg version="1.0" xmlns="http://www.w3.org/2000/svg"
 width="414.000000pt" height="896.000000pt" viewBox="0 0 414.000000 896.000000"
 preserveAspectRatio="xMidYMid meet">

<g transform="translate(0.000000,896.000000) scale(0.100000,-0.100000)"
fill="#000000" stroke="none">
<path d="M930 8957 c0 -2 12 -37 26 -78 55 -158 75 -274 81 -454 4 -143 2
-189 -15 -291 -50 -289 -168 -540 -358 -759 -143 -165 -378 -331 -572 -405
l-92 -35 0 -3467 0 -3468 1234 0 1234 0 22 63 c13 34 48 111 78 170 181 359
500 633 874 752 187 59 260 69 491 70 l207 0 0 3953 0 3952 -1605 0 c-883 0
-1605 -1 -1605 -3z"/>
</g>
</svg>
